<?xml version="1.0" encoding="utf-8"?>
<!-- Generator: Adobe Illustrator 24.3.0, SVG Export Plug-In . SVG Version: 6.00 Build 0)  -->
<svg version="1.0" id="Layer_1" xmlns="http://www.w3.org/2000/svg" xmlns:xlink="http://www.w3.org/1999/xlink" x="0px" y="0px"
	 viewBox="0 0 823.75 633.06" style="enable-background:new 0 0 823.75 633.06;" xml:space="preserve">
<style type="text/css">
	.st0{fill:#1D1D1B;}
	.st1{fill-rule:evenodd;clip-rule:evenodd;fill:#005CB9;}
	.st2{fill:#FFFFFF;}
</style>
<path class="st0" d="M139.3,235.03c2.19-12.77,3.98-23.59,5.39-32.48c1.41-8.89,2.62-17.19,3.65-24.91l7.53-57.64
	c3.12,0.3,5.52,0.49,7.19,0.59c1.67,0.1,3.14,0.14,4.4,0.14s3,0,4.85-0.16s4.19-0.3,7-0.57c5.64,14.88,10.97,28.49,16,40.84
	c5.03,12.35,9.99,24.01,14.88,35l21.2-46c2.67-5.91,4.91-11.24,6.74-16c1.83-4.76,3.36-9.37,4.6-13.84c3,0.3,5.31,0.49,7.07,0.59
	s3.25,0.14,4.52,0.14c1.42,0,3,0,4.8-0.14c1.8-0.14,4.1-0.29,6.95-0.59l5.42,56.65c0.11,1.33,0.3,3.36,0.58,6.09
	c2.32,23.86,4.59,41.29,6.8,52.29c-3.94-0.29-7.06-0.49-9.36-0.59c-2.3-0.09-4.28-0.15-5.92-0.15c-1.86,0-4,0.06-6.29,0.15
	c-2.29,0.09-5.38,0.3-9.15,0.59c-0.17-8.98-0.85-20.23-2.06-33.76c-0.11-1-0.16-1.78-0.16-2.22l-4.06-40.19
	c-5.92,12.78-11.62,25.5-17.1,38.17c-5.48,12.67-10.78,25.33-15.9,38c-1-0.1-1.91-0.17-2.79-0.22s-1.92-0.07-3.12-0.07
	c-0.66,0-1.92,0.05-3.79,0.15c-1,0-1.77,0.09-2.38,0.14c-4.98-12.83-10.18-25.45-15.61-37.84c-5.43-12.39-11.11-24.65-17.06-36.76
	l-4.85,46.1c-0.27,3.89-0.56,8.26-0.86,13.09c-0.3,4.83-0.59,9.96-0.86,15.39c-2.8-0.29-4.89-0.49-6.29-0.59
	c-1.4-0.1-2.53-0.15-3.41-0.15s-2,0.06-3.24,0.15c-1.24,0.09-3.06,0.3-5.31,0.59"/>
<path class="st0" d="M289.66,235.03c0.67-7.62,1.13-15.26,1.39-22.93c0.26-7.67,0.41-17.29,0.44-28.88c0-9.94-0.15-19.09-0.44-27.46
	c-0.29-8.37-0.76-16.56-1.39-24.57c4.06,0.44,7.15,0.74,9.29,0.88s4,0.23,5.65,0.23c1.09,0,2.56-0.08,4.42-0.23s5-0.44,9.26-0.88
	c-0.55,7.48-0.96,15.2-1.24,23.16c-0.28,7.96-0.42,17.58-0.42,28.87v5.94c0,9.33,0.14,17.59,0.42,24.76
	c0.27,7.14,0.69,14.19,1.24,21.11c-3.67-0.24-6.7-0.43-9.11-0.55s-4.47-0.19-6.2-0.19c-0.9,0-2.16,0.05-3.8,0.12
	S294.36,234.69,289.66,235.03"/>
<path class="st0" d="M330.23,235.03c0.55-4.67,0.97-9.69,1.24-15.07s0.41-12.31,0.41-20.78v-29.27c0-8.75-0.14-16.04-0.41-21.89
	c-0.27-5.85-0.71-11.39-1.31-16.62c2,0.09,4.08,0.17,6.23,0.24c2.13,0.07,4.3,0.1,6.53,0.1c4,0,8.95-0.09,14.85-0.27
	c5.9-0.18,9.83-0.27,11.8-0.28c12.62,0,21.6,0.48,26.94,1.45c4.82,0.79,9.47,2.41,13.74,4.79c6.63,3.81,11.88,9.61,15,16.59
	c3.33,7.2,5,16.12,5,26.75c0,18.07-5.22,31.63-15.66,40.68c-10.44,9.05-26.07,13.57-46.88,13.58c-3.16,0-7.5-0.05-13-0.14
	s-9.43-0.15-11.8-0.15c-1.63,0-3.36,0-5.16,0.07L330.23,235.03 M357.63,223.61c1.53,0.33,3.07,0.57,4.63,0.74
	c1.44,0.15,2.89,0.22,4.34,0.22c11.95,0,20.95-3.58,27-10.73c6.05-7.15,9.08-17.79,9.08-31.9c0-14.4-2.75-24.73-8.26-31
	c-5.51-6.27-14.73-9.41-27.67-9.43c-2.23,0-4,0-5.23,0s-2.51,0.09-3.74,0.19c-0.05,2.62-0.13,6.44-0.23,11.44
	c-0.24,15.45-0.36,25.92-0.37,31.41c0,4,0.04,9.27,0.12,15.82c0.08,6.55,0.19,14.3,0.33,23.25"/>
<path class="st0" d="M437.03,235.03c0.55-4.67,0.96-9.69,1.24-15.07c0.28-5.38,0.42-12.31,0.41-20.78v-29.27
	c0-8.75-0.14-16.04-0.41-21.89c-0.27-5.85-0.71-11.39-1.31-16.62c2,0.09,4.08,0.17,6.23,0.24s4.33,0.11,6.54,0.1
	c4,0,8.95-0.09,14.84-0.27c5.89-0.18,9.83-0.27,11.81-0.28c12.61,0,21.59,0.48,26.93,1.45c4.82,0.78,9.48,2.4,13.74,4.79
	c6.63,3.8,11.89,9.61,15,16.59c3.33,7.2,5,16.12,5,26.75c0,18.07-5.22,31.63-15.65,40.68c-10.43,9.05-26.06,13.57-46.88,13.58
	c-3.17,0-7.5-0.05-13-0.14c-5.5-0.1-9.43-0.15-11.81-0.15c-1.63,0-3.35,0-5.16,0.07l-7.53,0.22 M464.43,223.61
	c1.53,0.33,3.08,0.57,4.63,0.74c1.44,0.15,2.89,0.22,4.34,0.22c11.95,0,20.95-3.58,27-10.73c6.05-7.15,9.07-17.79,9.08-31.9
	c0-14.4-2.75-24.73-8.26-31s-14.73-9.41-27.68-9.43c-2.22,0-4,0-5.23,0s-2.5,0.09-3.74,0.19c-0.05,2.62-0.12,6.44-0.22,11.44
	c-0.24,15.45-0.36,25.92-0.37,31.41c0,4,0.04,9.27,0.11,15.82c0.07,6.55,0.18,14.3,0.33,23.25"/>
<path class="st0" d="M547.87,235.03c0.67-5.45,1.17-11.25,1.52-17.42c0.35-6.17,0.51-14.17,0.5-24v-16.8
	c0-11.17-0.17-20.1-0.5-26.81c-0.33-6.71-0.84-12.98-1.52-18.81c1.68,0.1,3.9,0.23,6.68,0.37c3.71,0.15,6.09,0.22,7.13,0.23
	c2.47,0,6.65-0.15,12.54-0.45c1-0.05,1.85-0.1,2.46-0.15c-0.5,5.2-0.86,10.3-1.11,15.32s-0.36,10.35-0.36,16v39.69
	c0,6.23,0.05,10.66,0.14,13.29c0.1,2.62,0.25,4.93,0.44,6.9c5.76,0,11.38-0.14,16.87-0.41s10.93-0.69,16.34-1.24
	c-0.15,1.49-0.26,2.82-0.34,4s-0.11,2.22-0.11,3.17c0,0.59,0.12,2,0.37,4.32c0.1,1.14,0.17,2.09,0.23,2.83
	c-11.21-0.29-19.56-0.49-25.07-0.59c-5.5-0.09-9.86-0.15-13.08-0.15c-3.87,0-7.73,0.07-11.57,0.19s-7.69,0.31-11.56,0.55"/>
<path class="st0" d="M617.71,235.03c0.67-5.45,1.17-11.26,1.51-17.43c0.34-6.17,0.51-14.17,0.5-24v-16.79
	c0-11.18-0.17-20.12-0.5-26.82c-0.33-6.7-0.87-13-1.58-18.8c10.09,0.35,17.05,0.56,20.9,0.63c3.85,0.07,6.78,0.1,8.8,0.11
	c3.56,0,7.85-0.05,12.88-0.15c5.03-0.1,11.4-0.3,19.13-0.59c0,0.4-0.05,1-0.13,1.87c-0.22,2.44-0.33,4.1-0.33,5s0.11,2.47,0.33,4.7
	c0.06,0.9,0.1,1.57,0.13,2c-3.95-0.37-7.92-0.65-11.89-0.83c-3.97-0.18-8.01-0.27-12.12-0.27c-2.77,0-4.82,0-6.15,0
	c-1.33,0-2.54,0.06-3.63,0.11c-0.2,3.77-0.33,7.53-0.4,11.26c-0.07,3.73-0.11,7.43-0.12,11.09v8c4.15-0.09,9-0.25,14.53-0.46
	c5.53-0.21,11.76-0.49,18.68-0.82c-0.2,1.38-0.35,2.69-0.45,3.92s-0.14,2.32-0.14,3.26c0,0.58,0.09,1.86,0.29,3.84
	c0.15,1.28,0.25,2.32,0.3,3.1c-5.69-0.38-11.29-0.67-16.83-0.89s-11-0.34-16.38-0.39v16.5c0,4.55,0.06,8.42,0.19,11.61
	c0.13,3.19,0.33,6.05,0.62,8.58c5.66,0,11.22-0.14,16.68-0.41s10.94-0.69,16.45-1.24c-0.18,1-0.32,2-0.41,3.06s-0.14,2.41-0.14,4.1
	c0,0.64,0.06,1.59,0.19,2.83s0.24,2.68,0.36,4.32c-11.2-0.29-19.55-0.49-25.06-0.59c-5.5-0.09-9.86-0.15-13.09-0.15
	c-3.87,0-7.72,0.07-11.56,0.19S621.57,234.79,617.71,235.03"/>
<path class="st0" d="M118.27,278.46c-4.49-0.55-9.01-0.99-13.54-1.33c-4.53-0.34-9.12-0.51-13.76-0.5c-0.19,2.92-0.34,6-0.44,9.1
	s-0.15,7.28-0.15,12.38v6.22c0,17.94,0.15,31.19,0.44,39.76c0.29,8.57,0.76,16.41,1.4,23.54c-4.32-0.3-7.53-0.5-9.62-0.6
	c-2.08-0.09-3.72-0.15-4.91-0.15c-1.64,0-3.54,0.06-5.7,0.15c-2.16,0.09-5.08,0.3-8.76,0.6c0.61-7.17,1.07-14.66,1.38-22.48
	s0.46-17.58,0.45-29.29c0-5.04-0.05-10.92-0.15-17.65c-0.1-6.73-0.25-13.92-0.46-21.58c-4.63,0-9.25,0.17-13.87,0.5
	s-9.15,0.8-13.58,1.4l0.07-0.53c0.34-3.49,0.52-6,0.52-7.48c0-0.6-0.1-1.88-0.3-3.82c-0.1-1.17-0.17-2.17-0.22-2.91
	c11.07,0.39,19.58,0.67,25.51,0.84s10.98,0.26,15.13,0.26c3.85,0,8.59-0.08,14.24-0.23s14.42-0.44,26.32-0.87
	c-0.15,1.6-0.26,3-0.33,4.07s-0.12,2-0.12,2.63c0,1.2,0.04,2.48,0.12,3.84C118.01,275.68,118.12,277.06,118.27,278.46"/>
<path class="st0" d="M128.43,367.63c0.67-5.45,1.17-11.26,1.52-17.43c0.35-6.17,0.51-14.17,0.5-24v-16.8
	c0-11.17-0.17-20.1-0.5-26.81c-0.33-6.71-0.86-12.97-1.59-18.8c10.09,0.34,17.07,0.55,20.9,0.62s6.77,0.11,8.8,0.11
	c3.57,0,7.87-0.05,12.89-0.14c5.02-0.09,11.39-0.29,19.12-0.59c0,0.4,0,1-0.13,1.86c-0.22,2.44-0.33,4.11-0.33,5s0.11,2.46,0.33,4.7
	c0.06,0.9,0.1,1.57,0.13,2c-3.95-0.36-7.91-0.63-11.89-0.82c-4-0.19-8-0.27-12.11-0.27c-2.77,0-4.82,0-6.15,0
	c-1.34,0-2.55,0.07-3.64,0.12c-0.19,3.76-0.33,7.51-0.4,11.25c-0.07,3.74-0.11,7.43-0.11,11.1v7.95c4.15-0.1,8.99-0.26,14.52-0.47
	c5.53-0.21,11.76-0.49,18.68-0.82c-0.2,1.39-0.34,2.69-0.44,3.92s-0.15,2.32-0.15,3.26c0,0.59,0.1,1.87,0.3,3.84
	c0.14,1.29,0.24,2.32,0.29,3.11c-5.68-0.38-11.29-0.68-16.83-0.89c-5.54-0.21-11-0.35-16.37-0.4v16.5c0,4.55,0.06,8.43,0.18,11.62
	c0.12,3.19,0.33,6.05,0.63,8.58c5.65,0,11.21-0.14,16.67-0.42c5.46-0.28,10.95-0.69,16.46-1.23c-0.19,0.99-0.33,1.99-0.42,3
	c-0.09,1.05-0.13,2.41-0.13,4.1c0.01,0.95,0.07,1.89,0.18,2.83c0.12,1.25,0.24,2.69,0.37,4.33c-11.21-0.29-19.57-0.49-25.06-0.59
	s-9.86-0.15-13.09-0.14c-3.87,0-7.73,0.06-11.57,0.18c-3.84,0.12-7.69,0.3-11.56,0.55"/>
<path class="st0" d="M201.87,367.63c0.58-7.57,1-15.33,1.26-23.28c0.26-7.95,0.39-17.44,0.4-28.48c0-6.86-0.12-14.66-0.37-23.39
	c-0.25-8.73-0.58-18.24-1-28.51c2.62,0.27,4.68,0.46,6.19,0.57c1.51,0.11,2.78,0.16,3.82,0.16s2.43,0,3.89-0.14s3.45-0.29,6-0.59
	c9.19,11.86,18.62,23.4,28.31,34.61c9.69,11.21,19.64,22.15,29.87,32.82v-28.53c0-8.15-0.09-15.15-0.26-21
	c-0.17-5.85-0.43-11.81-0.78-17.86c1.78,0.25,3.3,0.43,4.59,0.55c1.08,0.11,2.16,0.17,3.25,0.18c0.84,0,2.22-0.09,4.14-0.29
	l4.29-0.44c-0.73,5.59-1.25,13.1-1.55,22.53s-0.46,23.39-0.47,41.86v7.26c0,7.51,0.1,13.7,0.29,18.56
	c0.19,4.86,0.48,9.34,0.86,13.45c-2.42-0.29-4.29-0.5-5.59-0.59c-1.3-0.09-2.46-0.14-3.44-0.14c-0.98,0-2.24,0-3.59,0.14
	c-1.35,0.14-3.2,0.3-5.52,0.59c-9.29-11.76-18.87-23.33-28.72-34.72c-9.85-11.39-20.12-22.72-30.79-34v41.94c0,3,0,6.77,0.15,11.41
	s0.25,9.78,0.44,15.41c-1.83-0.25-3.38-0.43-4.67-0.55s-2.42-0.18-3.41-0.18c-0.64,0-1.51,0-2.59,0.14s-2.74,0.3-5,0.59"/>
<path class="st0" d="M300.37,367.63c0.58-7.57,1-15.33,1.26-23.28s0.39-17.44,0.39-28.48c0-6.86-0.12-14.66-0.36-23.39
	c-0.24-8.73-0.57-18.24-1-28.51c2.62,0.27,4.69,0.46,6.19,0.57s2.78,0.16,3.82,0.16s2.43,0,3.89-0.14s3.45-0.29,6-0.59
	c9.19,11.86,18.63,23.4,28.31,34.61s19.64,22.15,29.87,32.82v-28.53c0-8.15-0.09-15.15-0.26-21c-0.17-5.85-0.43-11.81-0.78-17.86
	c1.78,0.25,3.3,0.43,4.59,0.55c1.08,0.11,2.16,0.17,3.25,0.18c0.84,0,2.22-0.09,4.14-0.29l4.29-0.44
	c-0.73,5.56-1.26,13.07-1.58,22.52s-0.48,23.41-0.47,41.86v7.26c0,7.51,0.09,13.7,0.28,18.56c0.19,4.86,0.48,9.34,0.87,13.45
	c-2.42-0.29-4.28-0.5-5.59-0.59s-2.46-0.14-3.44-0.14s-2.23,0-3.59,0.14s-3.2,0.3-5.52,0.59c-9.29-11.76-18.87-23.33-28.72-34.72
	s-20.12-22.72-30.79-34v41.94c0,3,0.05,6.77,0.15,11.41s0.24,9.78,0.44,15.41c-1.83-0.25-3.39-0.43-4.67-0.55s-2.42-0.18-3.41-0.18
	c-0.64,0-1.5,0-2.59,0.14s-2.74,0.3-5,0.59"/>
<path class="st0" d="M407.53,367.63c0.67-5.45,1.17-11.26,1.51-17.43c0.34-6.17,0.51-14.17,0.51-24v-16.8
	c0-11.17-0.17-20.1-0.51-26.81c-0.34-6.71-0.87-12.97-1.59-18.8c10.11,0.34,17.08,0.55,20.91,0.62c3.83,0.08,6.77,0.11,8.8,0.11
	c3.57,0,7.86-0.05,12.88-0.14c5.02-0.09,11.4-0.29,19.13-0.59c0,0.4,0,1-0.13,1.86c-0.22,2.44-0.33,4.11-0.33,5s0.11,2.46,0.33,4.7
	c0.06,0.9,0.1,1.57,0.13,2c-3.95-0.36-7.92-0.63-11.89-0.82c-4-0.19-8-0.27-12.12-0.27c-2.76,0-4.81,0-6.15,0s-2.55,0.04-3.63,0.12
	c-0.2,3.76-0.33,7.51-0.4,11.25c-0.08,3.74-0.12,7.43-0.12,11.1v7.95c4.15-0.1,8.99-0.26,14.53-0.47
	c5.54-0.21,11.77-0.49,18.68-0.82c-0.2,1.39-0.35,2.69-0.44,3.92s-0.15,2.32-0.15,3.26c0,0.59,0.09,1.87,0.29,3.84
	c0.15,1.29,0.25,2.32,0.3,3.11c-5.68-0.38-11.29-0.68-16.82-0.89s-11-0.35-16.39-0.4v16.5c0,4.55,0.07,8.43,0.19,11.62
	s0.33,6.05,0.63,8.58c5.66,0,11.22-0.14,16.67-0.42c5.45-0.28,10.94-0.69,16.45-1.23c-0.18,1-0.32,2-0.41,3s-0.14,2.41-0.14,4.1
	c0,0.65,0.07,1.59,0.19,2.83s0.24,2.69,0.36,4.33c-11.2-0.29-19.55-0.49-25.06-0.59s-9.87-0.15-13.08-0.14
	c-3.88,0-7.73,0.06-11.57,0.18s-7.7,0.3-11.56,0.55"/>
<path class="st0" d="M481.58,364.64c0.7-3.36,1.38-6.9,2.08-10.6s1.56-8.47,2.6-14.3h2.61c1.33,6.58,3.87,11.47,7.6,14.66
	s8.79,4.79,15.17,4.79c5.83,0,10.41-1.33,13.72-4c3.32-2.66,5.18-6.75,5-11c0.08-3.2-1.1-6.31-3.29-8.65
	c-2.2-2.35-7.67-5.55-16.4-9.61c-11.69-5.45-19.4-10.4-23.14-14.85c-3.74-4.45-5.63-10.09-5.66-16.92c0-10,3.49-17.87,10.47-23.6
	c6.98-5.73,16.57-8.6,28.77-8.6c4.91-0.03,9.8,0.49,14.59,1.57c4.4,1.02,8.64,2.65,12.58,4.86c-1.28,3.26-2.41,6.53-3.39,9.8
	c-0.98,3.27-1.86,6.61-2.65,10h-1.77c-2.17-5.6-4.95-9.69-8.36-12.27c-3.41-2.58-7.7-3.87-12.87-3.87c-5.12,0-9.24,1.23-12.35,3.7
	c-3.01,2.27-4.74,5.84-4.65,9.61c0,5.28,6,10.66,18,16.13c2.07,0.94,3.68,1.68,4.81,2.22c11.45,5.49,18.83,10.4,22.14,14.73
	c3.31,4.33,4.96,9.9,4.95,16.72c0,10.78-3.84,19.22-11.52,25.32s-18.35,9.15-32,9.16c-4.85,0.02-9.69-0.41-14.46-1.28
	c-4.32-0.78-8.55-2.03-12.6-3.72"/>
<path class="st0" d="M555.58,364.64c0.67-3.33,1.36-6.87,2.07-10.6s1.58-8.5,2.6-14.3h2.62c1.33,6.58,3.87,11.47,7.6,14.66
	s8.79,4.79,15.17,4.79c5.83,0,10.41-1.33,13.72-4c3.32-2.66,5.18-6.75,5-11c0.08-3.2-1.1-6.31-3.29-8.65
	c-2.2-2.35-7.67-5.55-16.4-9.61c-11.69-5.45-19.41-10.4-23.14-14.85c-3.73-4.45-5.62-10.09-5.66-16.92c0-10,3.49-17.87,10.47-23.6
	s16.57-8.6,28.77-8.6c4.91-0.03,9.8,0.5,14.59,1.57c4.4,1.02,8.64,2.65,12.58,4.86c-1.28,3.26-2.41,6.53-3.39,9.8
	s-1.86,6.61-2.65,10h-1.77c-2.17-5.6-4.96-9.69-8.36-12.27c-3.4-2.58-7.69-3.87-12.87-3.87c-5.13,0-9.25,1.23-12.35,3.7
	c-3.01,2.27-4.74,5.84-4.65,9.61c0,5.28,6,10.66,18,16.13c2.07,0.94,3.68,1.68,4.81,2.22c11.45,5.49,18.83,10.4,22.14,14.73
	c3.31,4.33,4.97,9.9,5,16.72c0,10.78-3.84,19.22-11.52,25.32c-7.68,6.1-18.35,9.15-32,9.16c-4.85,0.02-9.68-0.41-14.45-1.28
	c-4.32-0.78-8.55-2.03-12.6-3.72"/>
<path class="st0" d="M637.61,367.63c0.67-5.45,1.17-11.26,1.51-17.43c0.34-6.17,0.51-14.17,0.51-24v-16.8
	c0-11.17-0.17-20.1-0.51-26.81c-0.34-6.71-0.87-12.97-1.59-18.8c10.1,0.34,17.07,0.55,20.91,0.62c3.84,0.08,6.77,0.11,8.8,0.11
	c3.57,0,7.87-0.05,12.88-0.14c5.01-0.09,11.39-0.29,19.13-0.59c0,0.4,0,1-0.13,1.86c-0.22,2.44-0.33,4.11-0.33,5s0.11,2.46,0.33,4.7
	c0.06,0.9,0.1,1.57,0.13,2c-3.95-0.36-7.92-0.63-11.89-0.82c-4-0.19-8-0.27-12.12-0.27c-2.76,0-4.81,0-6.15,0
	c-1.34,0-2.55,0.04-3.63,0.12c-0.2,3.76-0.33,7.51-0.4,11.25c-0.08,3.74-0.12,7.43-0.12,11.1v7.95c4.15-0.1,9-0.26,14.53-0.47
	c5.53-0.21,11.76-0.49,18.68-0.82c-0.2,1.39-0.35,2.69-0.44,3.92s-0.15,2.32-0.15,3.26c0,0.59,0.09,1.87,0.29,3.84
	c0.15,1.29,0.25,2.32,0.3,3.11c-5.68-0.38-11.29-0.68-16.83-0.89s-11-0.35-16.38-0.4v16.5c0,4.55,0.06,8.43,0.19,11.62
	s0.33,6.05,0.63,8.58c5.66,0,11.22-0.14,16.67-0.42c5.45-0.28,10.93-0.68,16.44-1.19c-0.18,1-0.31,2-0.41,3s-0.13,2.41-0.13,4.1
	c0.01,0.95,0.07,1.89,0.18,2.83c0.12,1.25,0.24,2.69,0.36,4.33c-11.2-0.29-19.55-0.49-25.06-0.59c-5.51-0.1-9.87-0.15-13.08-0.14
	c-3.87,0-7.72,0.06-11.57,0.18s-7.7,0.3-11.56,0.55"/>
<path class="st0" d="M707.38,367.63c0.67-5.45,1.17-11.26,1.52-17.43c0.35-6.17,0.51-14.17,0.5-24v-16.8
	c0-11.17-0.17-20.1-0.5-26.81c-0.33-6.71-0.86-12.97-1.59-18.8c10.1,0.34,17.07,0.55,20.9,0.62c3.84,0.08,6.77,0.11,8.8,0.11
	c3.57,0,7.87-0.05,12.89-0.14s11.39-0.29,19.12-0.59c0,0.4,0,1-0.13,1.86c-0.22,2.44-0.32,4.11-0.32,5s0.1,2.46,0.32,4.7
	c0.06,0.9,0.1,1.57,0.13,2c-3.95-0.36-7.91-0.63-11.89-0.82c-4-0.19-8-0.27-12.11-0.27c-2.77,0-4.82,0-6.16,0s-2.55,0.04-3.63,0.12
	c-0.19,3.76-0.33,7.51-0.4,11.25s-0.11,7.43-0.11,11.1v7.95c4.14-0.1,9-0.25,14.52-0.47s11.76-0.48,18.68-0.82
	c-0.2,1.39-0.34,2.69-0.44,3.92s-0.15,2.32-0.15,3.26c0,0.59,0.1,1.87,0.29,3.84c0.15,1.29,0.25,2.32,0.3,3.11
	c-5.68-0.38-11.29-0.68-16.82-0.89s-10.99-0.35-16.38-0.4v16.5c0,4.55,0.06,8.43,0.18,11.62s0.33,6.05,0.63,8.58
	c5.66,0,11.22-0.14,16.67-0.42c5.45-0.28,10.94-0.69,16.46-1.23c-0.19,1-0.32,2-0.42,3s-0.13,2.41-0.13,4.1
	c0,0.65,0.06,1.59,0.18,2.83s0.24,2.69,0.37,4.33c-11.21-0.29-19.56-0.49-25.07-0.59s-9.87-0.15-13.08-0.14
	c-3.87,0-7.72,0.06-11.57,0.18c-3.85,0.12-7.7,0.3-11.56,0.55"/>
<path class="st0" d="M46.47,499.64l0.72-0.16c1.01,2.89,2.87,5.41,5.34,7.21c2.49,1.71,5.45,2.6,8.47,2.52c3.21,0.17,6.36-0.9,8.8-3
	c2.21-2.08,3.41-5.02,3.27-8.06c0.11-2.42-0.71-4.79-2.29-6.62c-1.52-1.69-4.88-3.57-10.09-5.62c-5.77-2.22-9.65-4.45-11.66-6.69
	c-2.08-2.44-3.15-5.58-3-8.78c0-4.93,1.59-8.79,4.76-11.59c3.17-2.8,7.53-4.21,13.08-4.22c4.84-0.03,9.6,1.18,13.84,3.52l0,0
	c-0.63,1.25-1.17,2.55-1.61,3.89c-0.44,1.34-0.79,2.71-1.05,4.1h-0.79c-0.4-2.46-1.71-4.67-3.68-6.2c-2.23-1.52-4.89-2.28-7.58-2.15
	c-2.75-0.09-5.43,0.89-7.47,2.74c-1.9,1.82-2.93,4.37-2.82,7c-0.07,2.24,0.79,4.42,2.38,6c1.59,1.56,4.76,3.21,9.52,4.95
	c6.24,2.3,10.4,4.61,12.49,6.92c2.17,2.56,3.29,5.85,3.13,9.2c0.12,5.04-1.98,9.87-5.74,13.23c-3.83,3.51-8.7,5.26-14.61,5.26
	c-2.85,0.03-5.68-0.37-8.41-1.19c-2.42-0.74-4.66-1.95-6.6-3.58c0.41-1.4,0.75-2.82,1-4.25c0.27-1.46,0.44-2.94,0.52-4.43"/>
<path class="st0" d="M104.7,460.31h-5c-1.15,0-2.72,0.11-4.73,0.31c-2.01,0.2-4.41,0.54-7.24,1c0.13-0.49,0.23-0.98,0.29-1.48
	c0.05-0.51,0.08-1.02,0.08-1.53c0-0.51-0.03-1.02-0.1-1.52c-0.06-0.45-0.16-0.9-0.27-1.34c3.72,0.17,7.33,0.3,10.84,0.41
	c3.51,0.11,6.93,0.16,10.28,0.15c3.85,0,7.48-0.05,10.9-0.15c3.42-0.1,6.81-0.24,10.18-0.41c-0.16,0.85-0.26,1.47-0.3,1.86
	c-0.05,0.38-0.07,0.77-0.07,1.16c0,0.44,0.03,0.88,0.09,1.31c0.07,0.51,0.16,1.01,0.28,1.51c-2.9-0.42-5.39-0.73-7.45-0.94
	s-3.74-0.31-5-0.31h-4.61c-0.13,2.12-0.23,3.92-0.29,5.42s-0.1,2.83-0.1,4c0,10.87,0.08,19.77,0.25,26.69s0.42,12.07,0.76,15.44
	c-0.7-0.14-1.41-0.23-2.12-0.28c-0.77-0.06-1.63-0.09-2.59-0.09s-1.81,0-2.57,0.09c-0.73,0.05-1.45,0.15-2.17,0.28
	c0.35-3.66,0.6-8.36,0.77-14.09s0.25-13,0.24-21.79c0-3.88-0.03-6.94-0.08-9.19c0-2.24-0.15-4.4-0.28-6.49"/>
<path class="st0" d="M122.93,511.87c3.9-8.75,7.85-17.82,11.85-27.21s8.18-19.37,12.53-29.94c0.38,0.09,0.73,0.16,1.07,0.21
	c0.3,0.04,0.6,0.06,0.9,0.06c0.33,0,0.67-0.02,1-0.06c0.31-0.05,0.63-0.12,0.93-0.21c3.66,9.63,7.43,19.2,11.31,28.73
	c3.88,9.53,7.85,19,11.91,28.42c-1.05-0.11-2-0.2-2.89-0.27s-1.73-0.11-2.52-0.11s-1.63,0-2.47,0.11s-1.72,0.16-2.63,0.27
	c-1.18-4-2.36-7.68-3.57-11.2c-1.21-3.52-2.45-6.89-3.73-10.08c-1.5-0.11-3-0.18-4.57-0.22c-1.57-0.04-3.12-0.06-4.7-0.06
	c-1.58,0-3.3,0-5,0.06s-3.51,0.11-5.35,0.22l-3.17,8.81c-0.7,1.92-1.36,3.93-2,6s-1.21,4.24-1.77,6.46c-0.6-0.13-1.2-0.22-1.81-0.28
	c-0.57-0.06-1.15-0.1-1.73-0.1c-0.55,0-1.11,0.04-1.66,0.1c-0.58,0.06-1.21,0.15-1.9,0.28 M138.81,486.3
	c1.47,0.08,2.91,0.14,4.31,0.18s2.79,0.06,4.15,0.06s2.6,0,3.87-0.06s2.49-0.1,3.67-0.18l-7.94-20.34L138.81,486.3z"/>
<path class="st0" d="M190.93,460.31h-5c-1.15,0-2.72,0.11-4.72,0.31s-4.42,0.54-7.24,1c0.13-0.49,0.22-0.98,0.28-1.48
	c0.05-0.51,0.08-1.02,0.08-1.53c0-0.51-0.03-1.02-0.1-1.52c-0.07-0.48-0.16-0.92-0.26-1.34c3.71,0.17,7.32,0.3,10.83,0.41
	c3.52,0.1,6.94,0.15,10.28,0.15c3.85,0,7.49-0.05,10.9-0.15c3.41-0.1,6.81-0.24,10.18-0.41c-0.15,0.85-0.25,1.47-0.3,1.86
	c0,0.4-0.07,0.78-0.07,1.16c0,0.44,0.03,0.88,0.1,1.31c0.06,0.51,0.15,1.01,0.27,1.51c-2.9-0.42-5.39-0.73-7.45-0.94
	s-3.74-0.31-5-0.31h-4.6c-0.13,2.12-0.23,3.92-0.29,5.42s-0.1,2.83-0.1,4c0,10.87,0.08,19.77,0.25,26.69s0.42,12.07,0.76,15.44
	c-0.7-0.14-1.41-0.23-2.12-0.28c-0.76-0.06-1.63-0.09-2.59-0.09s-1.81,0-2.57,0.09c-0.73,0.06-1.45,0.15-2.17,0.28
	c0.35-3.66,0.61-8.36,0.77-14.09s0.24-13,0.24-21.79c0-3.88,0-6.94-0.08-9.19s-0.15-4.4-0.28-6.49"/>
<path class="st0" d="M225.08,511.91c0.34-4,0.58-8.34,0.75-13s0.26-9.65,0.26-15c0-6-0.08-11.26-0.24-15.79
	c-0.16-4.53-0.42-8.62-0.77-12.27l7.93,0.12c2.59,0,5.14,0.06,7.65,0.06s5.06,0,7.47-0.06s4.76-0.09,7-0.16
	c-0.08,0.48-0.14,1-0.18,1.4s-0.06,0.92-0.06,1.4s0,0.89,0.06,1.39s0.1,1,0.18,1.54c-2.06-0.47-4.15-0.8-6.26-1
	c-2.23-0.22-4.64-0.34-7.23-0.34h-7.6v20h8.32c1.73,0,3.54-0.06,5.42-0.19s3.87-0.3,6-0.55c-0.07,0.46-0.12,0.92-0.14,1.39
	c0,0.36,0,0.71,0,1.07c0,0.53,0,1.4,0.12,2.6v0.44c-2.67-0.23-5-0.42-6.88-0.54s-3.49-0.19-4.72-0.19h-8.09v8.68
	c0,1.86,0,4,0.09,6.55s0.15,5.2,0.27,8.07h7.44c2.24,0,4.47-0.11,6.7-0.34c2.26-0.23,4.54-0.58,6.83-1
	c-0.08,0.37-0.13,0.75-0.14,1.13c0,0.4,0,1,0,1.82s0,1.41,0,1.8s0.05,0.73,0.08,1c-2.27-0.09-4.61-0.16-7-0.21
	c-2.39-0.05-4.88-0.08-7.47-0.1c-2.54,0-5.12,0.02-7.75,0.07c-2.63,0.05-5.32,0.12-8.07,0.21"/>
<path class="st0" d="M302.58,455.73c0.73,0.12,1.5,0.21,2.32,0.27s1.69,0.09,2.61,0.09s1.78,0,2.58-0.09s1.58-0.15,2.31-0.27
	c-0.31,3.44-0.54,6.31-0.69,8.61c-0.15,2.31-0.23,4.21-0.23,5.68v14.45c0,3.91,0.11,7.09,0.34,9.54c0.1,1.88,0.46,3.73,1.05,5.52
	c0.97,2.8,2.85,5.2,5.34,6.82c2.33,1.42,5.44,2.13,9.35,2.13c2.61,0.04,5.21-0.36,7.69-1.19c2.19-0.73,4.2-1.92,5.88-3.5
	c1.6-1.58,2.76-3.55,3.37-5.72c0.67-2.29,1-6.24,1-11.86v-13.82c0-3.6-0.08-6.71-0.22-9.34s-0.38-5.07-0.7-7.32
	c0.56,0.12,1.14,0.21,1.71,0.27c0.62,0.06,1.25,0.09,1.87,0.09c0.69,0,1.33,0,1.93-0.09c0.56-0.05,1.11-0.14,1.65-0.27
	c-0.34,2.36-0.59,5.2-0.76,8.51c-0.17,3.31-0.25,7.15-0.25,11.52v14c0,7.72-2.05,13.51-6.16,17.37s-10.25,5.79-18.43,5.79
	c-4.14,0.12-8.26-0.58-12.13-2.05c-3.08-1.21-5.7-3.37-7.47-6.17c-1.13-1.76-1.93-3.72-2.35-5.77c-0.56-3.27-0.79-6.59-0.7-9.9
	V469.9c0-2.6-0.08-5.07-0.23-7.43s-0.38-4.6-0.69-6.74"/>
<path class="st0" d="M364.01,511.93c0.45-3.93,0.78-9.66,1-17.2c0.22-7.54,0.33-16.72,0.34-27.55c0-1.86-0.02-3.84-0.07-5.93
	c-0.05-2.09-0.12-4.27-0.21-6.53h3c6.21,7.29,12.58,14.53,19.1,21.72c6.52,7.19,13.19,14.34,20,21.43v-22.4
	c0-2.73-0.08-5.76-0.25-9.07c-0.17-3.32-0.39-6.87-0.67-10.68c0.56,0.1,1.13,0.17,1.7,0.21c0.6,0.05,1.16,0.07,1.71,0.07
	c0.58,0,1.16-0.02,1.73-0.08c0.54,0,1.06-0.12,1.56-0.2c-0.42,2.95-0.75,8.31-1,16.08c-0.25,7.77-0.37,17.33-0.37,28.66
	c0,1.23,0,2.87,0.07,4.92s0.12,4.55,0.2,7.5H409c-1.85-2.46-3.94-5.08-6.31-7.83s-5.45-6.17-9.27-10.25l-23.67-25.37v22.32
	c0,3.83,0.09,7.41,0.26,10.74c0.16,3.33,0.42,6.47,0.76,9.41c-0.59-0.14-1.19-0.25-1.8-0.33c-0.55-0.07-1.11-0.1-1.66-0.1
	c-0.52,0-1.05,0.03-1.57,0.1c-0.54,0.08-1.12,0.18-1.76,0.33"/>
<path class="st0" d="M430.56,511.87c0.33-4.18,0.57-8.58,0.75-13.23s0.26-9.57,0.26-14.76c0-5.85-0.09-11.05-0.26-15.61
	c-0.18-4.56-0.42-8.71-0.75-12.45c0.86,0.1,1.68,0.2,2.48,0.26s1.59,0.1,2.36,0.1s1.52,0,2.32-0.09s1.66-0.15,2.56-0.27
	c-0.3,3.47-0.53,7.38-0.69,11.72c-0.16,4.34-0.23,9.79-0.22,16.36c0,5.8,0.07,10.97,0.22,15.5s0.38,8.69,0.69,12.47
	c-0.72-0.14-1.45-0.23-2.18-0.28c-0.79-0.06-1.68-0.1-2.7-0.1s-1.91,0-2.7,0.1C431.98,511.64,431.27,511.73,430.56,511.87"/>
<path class="st0" d="M474.74,511.87c-2.18-7.37-4.74-14.62-7.66-21.73c-3.82-9.73-8.63-21.2-14.44-34.41
	c0.83,0.12,1.67,0.21,2.52,0.27s1.76,0.09,2.73,0.09c1,0,1.91,0,2.75-0.09s1.65-0.15,2.43-0.27c1.41,4.82,3.78,11.72,7.1,20.7
	l1,2.53l8.78,23.68l8-21c2.08-5.46,3.81-10.28,5.2-14.47c1.39-4.19,2.53-8,3.43-11.45h0.2c1.18,0.18,2.37,0.29,3.57,0.32
	c0.45,0,0.94,0,1.45-0.07s1.25-0.14,2.24-0.29c-4.92,10.49-9.33,20.49-13.22,30s-7.12,18.21-9.69,26.1c-0.56-0.11-1.1-0.2-1.61-0.27
	c-0.5-0.07-1.01-0.11-1.52-0.11c-0.52,0-1.04,0.04-1.55,0.1c-0.52,0.06-1.07,0.15-1.67,0.28"/>
<path class="st0" d="M512.63,511.91c0.34-4,0.59-8.33,0.76-13c0.17-4.67,0.25-9.67,0.25-15c0-6-0.08-11.26-0.23-15.79
	c-0.16-4.52-0.41-8.61-0.78-12.27l7.93,0.12c2.59,0,5.15,0.06,7.66,0.06s5,0,7.47-0.06c2.47-0.06,4.76-0.09,7-0.16
	c-0.08,0.48-0.14,1-0.18,1.4s-0.06,0.92-0.06,1.4s0,0.89,0.06,1.39s0.1,1,0.18,1.54c-2.07-0.47-4.16-0.8-6.27-1
	c-2.23-0.22-4.63-0.34-7.22-0.34h-7.61v20h8.33c1.73,0,3.54-0.06,5.41-0.19s3.87-0.3,6-0.55c-0.07,0.57-0.13,1-0.14,1.39
	s0,0.71,0,1.07c0,0.53,0,1.4,0.12,2.6v0.44c-2.66-0.23-5-0.42-6.88-0.54s-3.49-0.19-4.71-0.19h-8.09v8.68c0,1.86,0,4,0.09,6.55
	c0.09,2.55,0.15,5.2,0.28,8.07h7.47c2.24,0,4.48-0.11,6.71-0.34c2.25-0.23,4.53-0.58,6.83-1c-0.09,0.37-0.14,0.75-0.14,1.13
	c0,0.4,0,1,0,1.82s0,1.41,0,1.8s0.05,0.73,0.08,1c-2.28-0.09-4.61-0.16-7-0.21c-2.39-0.05-4.88-0.07-7.48-0.07
	c-2.53,0-5.12,0-7.75,0.07s-5.32,0.12-8.07,0.21"/>
<path class="st0" d="M566.34,493.39c0,2.41,0.04,5.07,0.12,8c0.08,2.89,0.22,6.4,0.43,10.51c-0.66-0.13-1.33-0.22-2-0.27
	c-0.74-0.06-1.57-0.09-2.48-0.09s-1.77,0-2.48,0.1s-1.37,0.15-2,0.26c0.3-5.67,0.53-11.31,0.69-16.91s0.24-11.19,0.23-16.78
	c0-4.45-0.08-8.5-0.23-12.17c-0.16-3.67-0.39-7.13-0.69-10.36c0.91,0.12,1.84,0.21,2.79,0.27c0.95,0.06,1.94,0.09,2.95,0.09
	c1.67,0,3.89-0.06,6.66-0.18c2.77-0.12,4.7-0.18,5.8-0.18c5.79,0,10.21,1.11,13.27,3.33c3.06,2.22,4.59,5.45,4.58,9.69
	c0.08,3.61-1.44,7.07-4.15,9.45c-2.77,2.52-6.74,4.25-11.92,5.18c3.6,4.82,7.23,9.6,10.89,14.35c3.66,4.75,7.35,9.47,11.07,14.18
	c-1.07-0.12-2.11-0.21-3.12-0.27c-1-0.06-2-0.09-2.88-0.09s-1.8,0-2.74,0.09s-2,0.15-3.1,0.27c-2.85-4.73-5.91-9.38-9.2-13.93
	c-3.29-4.55-6.78-9.05-10.48-13.49h-2L566.34,493.39z M566.34,481.51c0.32,0,0.68,0.02,1.08,0.06c0.4,0,1,0,1.69,0
	c5.39,0,9.49-1,12.29-3c2.8-2,4.2-4.95,4.2-8.85c0.17-3.11-1.17-6.11-3.6-8.06c-2.41-1.88-5.85-2.82-10.32-2.81
	c-0.86,0-1.69,0-2.5,0.08c-0.77,0.04-1.53,0.14-2.29,0.28c-0.19,1.37-0.32,2.8-0.42,4.3s-0.13,3.55-0.13,6.13L566.34,481.51z"/>
<path class="st0" d="M609.2,499.64l0.72-0.16c1.01,2.89,2.87,5.41,5.34,7.21c2.49,1.71,5.45,2.6,8.47,2.52c3.21,0.17,6.36-0.9,8.8-3
	c2.21-2.08,3.41-5.02,3.27-8.06c0.11-2.42-0.7-4.78-2.28-6.62c-1.53-1.69-4.89-3.56-10.11-5.62c-5.76-2.22-9.65-4.45-11.66-6.69
	c-2.07-2.44-3.14-5.58-3-8.78c0-4.93,1.58-8.79,4.75-11.59c3.17-2.8,7.53-4.2,13.1-4.2c4.84-0.03,9.61,1.18,13.85,3.52l0,0
	c-0.63,1.26-1.17,2.56-1.62,3.89c-0.42,1.35-0.75,2.71-1,4.1h-0.79c-0.39-2.46-1.71-4.68-3.69-6.2c-2.22-1.52-4.88-2.28-7.57-2.15
	c-2.75-0.13-5.45,0.81-7.51,2.64c-1.9,1.82-2.93,4.37-2.82,7c-0.07,2.25,0.79,4.42,2.39,6c1.58,1.56,4.75,3.21,9.52,4.95
	c6.23,2.3,10.39,4.61,12.48,6.92c2.17,2.56,3.29,5.85,3.13,9.2c0.12,5.04-1.98,9.87-5.74,13.23c-3.83,3.51-8.7,5.26-14.61,5.26
	c-2.85,0.03-5.68-0.37-8.41-1.19c-2.4-0.73-4.63-1.94-6.56-3.55c0.42-1.4,0.75-2.81,1-4.25c0.27-1.46,0.44-2.94,0.52-4.43"/>
<path class="st0" d="M656.51,511.87c0.32-4.18,0.57-8.58,0.74-13.23s0.27-9.57,0.27-14.76c0-5.85-0.09-11.05-0.27-15.61
	c-0.18-4.56-0.43-8.71-0.74-12.45c0.85,0.1,1.68,0.2,2.47,0.26s1.59,0.1,2.37,0.1s1.52,0,2.32-0.09s1.65-0.15,2.56-0.27
	c-0.31,3.47-0.54,7.38-0.69,11.72c-0.15,4.34-0.22,9.79-0.23,16.36c0,5.8,0.08,10.97,0.23,15.5s0.38,8.69,0.69,12.47
	c-0.72-0.14-1.45-0.23-2.18-0.28c-0.79-0.06-1.69-0.1-2.7-0.1s-1.92,0-2.7,0.1C657.93,511.64,657.22,511.73,656.51,511.87"/>
<path class="st0" d="M696.2,460.31h-5c-1.15,0-2.73,0.11-4.73,0.31s-4.41,0.54-7.24,1c0.13-0.49,0.23-0.98,0.29-1.48
	c0.05-0.51,0.08-1.02,0.08-1.53c0-0.51-0.03-1.02-0.1-1.52c-0.06-0.45-0.16-0.9-0.27-1.34c3.71,0.17,7.32,0.3,10.84,0.41
	c3.51,0.1,6.94,0.15,10.27,0.15c3.86,0,7.49-0.05,10.9-0.15c3.43-0.1,6.82-0.24,10.19-0.41c-0.15,0.85-0.26,1.47-0.3,1.86
	c-0.05,0.38-0.07,0.77-0.07,1.16c0,0.44,0.03,0.88,0.09,1.31c0.07,0.51,0.16,1.01,0.28,1.51c-2.9-0.42-5.39-0.73-7.45-0.94
	s-3.74-0.31-5-0.31h-4.6c-0.12,2.12-0.22,3.92-0.28,5.42s-0.1,2.83-0.1,4c0,10.87,0.08,19.77,0.25,26.69
	c0.17,6.92,0.42,12.07,0.76,15.44c-0.7-0.14-1.41-0.23-2.12-0.28c-0.77-0.06-1.63-0.09-2.59-0.09s-1.81,0-2.57,0.09
	c-0.73,0.06-1.45,0.15-2.17,0.28c0.35-3.66,0.6-8.36,0.76-14.09s0.24-13,0.25-21.79c0-3.88-0.03-6.94-0.08-9.19
	s-0.15-4.41-0.28-6.49"/>
<path class="st0" d="M745,511.87c0.26-2.14,0.46-4.57,0.61-7.28c0.15-2.71,0.22-5.71,0.21-9v-6.89c-3.07-5.67-6.25-11.24-9.53-16.73
	c-3.28-5.49-6.68-10.86-10.19-16.12c0.83,0.12,1.71,0.21,2.63,0.27s1.88,0.09,2.87,0.09s1.94,0,2.79-0.09s1.63-0.15,2.38-0.27
	c0.86,2.19,1.92,4.57,3.18,7.12s2.75,5.34,4.49,8.34l7,12c2.56-4.23,5.01-8.63,7.36-13.18s4.6-9.31,6.76-14.26
	c0.54,0.13,1.09,0.22,1.65,0.27c0.62,0.06,1.25,0.09,1.88,0.09c0.7,0,1.35,0,2-0.09c0.56-0.05,1.11-0.14,1.66-0.27
	c-2,3.18-3.97,6.31-5.91,9.39c-1.94,3.08-3.75,6.08-5.42,9l-7.56,12.7v10.57c0,2.4,0,4.8,0.11,7.21s0.19,4.81,0.35,7.18
	c-0.86-0.13-1.68-0.22-2.47-0.28s-1.55-0.1-2.27-0.1s-1.42,0-2.18,0.11s-1.55,0.16-2.35,0.27"/>
<path class="st1" d="M499.52,386.94c-100.76,0-210.28,26.28-289.14,26.28c-74.48,0-122.24-5.87-158.17-16.84
	c-8.38-2.55-5,2.17,0.45,3.7c42.66,11.93,118.29,26.29,201.53,26.29c113.91,0,210.28-21.91,297.91-21.91
	c61.33,0,155.81,6.28,188.37,13.15c8.84,1.86,26.21,5.41,26.21,5.41c2.81-0.94-3.52-3.3-17-6.31
	C702.55,406.24,595.87,386.94,499.52,386.94"/>
<path class="st2" d="M786.74,507.53c0.01,2.7-2.18,4.89-4.88,4.9c-2.7,0.01-4.89-2.18-4.9-4.88c-0.01-2.7,2.18-4.89,4.88-4.9
	c0.01,0,0.01,0,0.02,0C784.55,502.66,786.73,504.84,786.74,507.53"/>
</svg>
